Coordinates
version=1
nRows=6
nColumns=63
inDegrees=yes

Units are S.I. units (second, meters, Newtons, ...)
If the header above contains a line with 'inDegrees', this indicates whether rotational values are in degrees (yes) or radians (no).

endheader
time	pelvis_tilt	pelvis_list	pelvis_rotation	pelvis_tx	pelvis_ty	pelvis_tz	hip_flexion_r	hip_adduction_r	hip_rotation_r	knee_angle_r	knee_angle_r_beta	ankle_angle_r	subtalar_angle_r	mtp_angle_r	hip_flexion_l	hip_adduction_l	hip_rotation_l	knee_angle_l	knee_angle_l_beta	ankle_angle_l	subtalar_angle_l	mtp_angle_l	L5_S1_Flex_Ext	L5_S1_Lat_Bending	L5_S1_axial_rotation	L4_L5_Flex_Ext	L4_L5_Lat_Bending	L4_L5_axial_rotation	L3_L4_Flex_Ext	L3_L4_Lat_Bending	L3_L4_axial_rotation	L2_L3_Flex_Ext	L2_L3_Lat_Bending	L2_L3_axial_rotation	L1_L2_Flex_Ext	L1_L2_Lat_Bending	L1_L2_axial_rotation	L1_T12_Flex_Ext	L1_T12_Lat_Bending	L1_T12_axial_rotation	Abs_r3	Abs_r2	Abs_r1	Abs_t1	Abs_t2	neck_flexion	neck_bending	neck_rotation	arm_flex_r	arm_add_r	arm_rot_r	elbow_flex_r	pro_sup_r	wrist_flex_r	wrist_dev_r	arm_flex_l	arm_add_l	arm_rot_l	elbow_flex_l	pro_sup_l	wrist_flex_l	wrist_dev_l
2.137931	-7.565452	-6.099734	81.308898	0.126883	0.978078	0.301058	6.466421	-5.776926	-12.148155	11.386096	0.198725	20.379136	16.735326	0.000000	4.743377	5.486142	-4.855351	6.911888	0.120635	9.347486	-9.686792	0.000000	0.019707	-0.865936	1.689139	0.036597	-1.151695	1.794710	0.032376	-2.105437	1.794710	0.022523	-2.105437	1.477997	0.018299	-1.765817	1.372426	0.011260	-1.341335	1.266854	0.140762	-9.795643	9.394485	0.000000	0.000000	-13.225685	-1.339333	7.256108	23.245910	11.163219	62.669873	121.284391	65.436629	-6.125723	21.632375	27.566937	-5.755125	60.566453	120.775495	49.587863	-8.544624	26.828211
2.155172	-7.541188	-6.226158	81.463601	0.127156	0.977998	0.299845	6.457660	-5.711740	-12.225369	11.292232	0.197087	20.421085	16.669783	0.000000	4.761652	5.439472	-4.570913	6.848840	0.119535	9.263977	-9.862905	0.000000	0.033766	-0.865055	1.753867	0.062706	-1.150523	1.863484	0.055474	-2.103294	1.863484	0.038591	-2.103294	1.534634	0.031355	-1.764020	1.425017	0.019294	-1.339970	1.315400	0.241185	-9.785673	9.754481	0.000000	0.000000	-13.168905	-1.151686	6.983995	22.252513	11.195925	62.339288	121.563217	67.093327	-6.002597	21.063070	27.610539	-5.411569	60.779850	120.682429	49.509640	-8.364180	26.224375
2.172414	-7.520964	-6.324369	81.653220	0.127387	0.977991	0.298789	6.416339	-5.654616	-12.400558	11.191757	0.195333	20.412975	16.588054	0.000000	4.770334	5.398762	-4.295210	6.807256	0.118809	9.217881	-9.921045	0.000000	0.043633	-0.863785	1.802909	0.081031	-1.148834	1.915591	0.071685	-2.100207	1.915591	0.049868	-2.100207	1.577545	0.040518	-1.761431	1.464864	0.024932	-1.338003	1.352182	0.311666	-9.771311	10.027239	0.000000	0.000000	-13.075682	-1.018835	6.769492	21.385471	11.237413	61.980235	121.727951	69.001076	-5.761186	20.534365	27.680121	-5.057819	61.235583	120.532001	49.316459	-8.383910	25.390700
2.189655	-7.487209	-6.389817	81.883223	0.127545	0.978058	0.297924	6.334141	-5.590232	-12.690344	11.081472	0.193408	20.334501	16.504806	0.000000	4.768838	5.348500	-4.015336	6.797326	0.118636	9.221130	-9.871135	0.000000	0.048883	-0.859927	1.823016	0.090781	-1.143703	1.936955	0.080311	-2.090827	1.936955	0.055869	-2.090827	1.595139	0.045393	-1.753563	1.481201	0.027932	-1.332027	1.367262	0.349169	-9.727668	10.139069	0.000000	0.000000	-12.951902	-0.974054	6.639092	20.746667	11.250893	61.695013	121.729970	70.512323	-5.502504	20.063644	27.709923	-4.808798	61.844690	120.373823	49.214118	-8.801777	24.634055
2.206897	-7.442171	-6.426315	82.141697	0.127630	0.978160	0.297260	6.225450	-5.522767	-13.074668	10.980054	0.191638	20.200086	16.422458	0.000000	4.760262	5.294541	-3.700187	6.815783	0.118958	9.249046	-9.789748	0.000000	0.049329	-0.853322	1.808099	0.091608	-1.134919	1.921105	0.081042	-2.074768	1.921105	0.056378	-2.074768	1.582087	0.045807	-1.740095	1.469080	0.028186	-1.321796	1.356074	0.352350	-9.652952	10.056104	0.000000	0.000000	-12.781748	-1.024327	6.644066	20.382563	11.233657	61.541926	121.570386	70.271216	-5.258529	19.934849	27.669581	-4.735745	62.515115	120.244516	49.102578	-9.750457	24.050080
2.224138	-7.377895	-6.428653	82.407433	0.127619	0.978282	0.296809	6.095299	-5.448035	-13.531926	10.902488	0.190284	20.010590	16.351040	0.000000	4.735671	5.233325	-3.355053	6.856913	0.119676	9.274837	-9.729389	0.000000	0.042481	-0.841997	1.758883	0.078892	-1.119856	1.868813	0.069792	-2.047231	1.868813	0.048552	-2.047231	1.539022	0.039448	-1.717000	1.429092	0.024274	-1.304253	1.319162	0.303439	-9.524838	9.782377	0.000000	0.000000	-12.555491	-1.184552	6.821954	20.325059	11.169341	61.516540	121.287288	68.523150	-5.060360	20.282389	27.542646	-4.802146	63.142746	120.117914	48.849472	-11.039011	23.795836
